# xmcd
#
# Track frame offsets:
#	150
#	13164
#	26068
#	41333
#	53598
#	76449
#	92803
#	102731
#	116904
#	135662
#	160630
#	178163
#	196533
#	221321
#
# Disc length: 3253 seconds
#
# Revision: 1
# Processed by: cddbd v1.5.2PL0 Copyright (c) Steve Scherf et al.
# Submitted via: audiograbber 1.83.01
#
DISCID=b60cb30e
DTITLE=Steve Earle - Live At The Polk Theater
DYEAR=1995
DGENRE=Country
TTITLE0=Mystery Train Part II
TTITLE1=Hometown Blues
TTITLE2=The Devil's Right Hand
TTITLE3=Angel Is The Devil
TTITLE4=Walls Of Time [With Bill Monroe]
TTITLE5=Sometimes She Forgets
TTITLE6=You Know The Rest
TTITLE7=I'm Looking Through You
TTITLE8=Rivers Of Babylon [With Emmylou Harris]
TTITLE9=Goodbye [With Emmylou Harris]
TTITLE10=Nothin' Without You [With Emmylou Harris]
TTITLE11=When Will We Be Married
TTITLE12=Northern Winds - Ben McCulloch
TTITLE13=Copperhead Road
EXTD=
EXTT0=
EXTT1=
EXTT2=
EXTT3=
EXTT4=
EXTT5=
EXTT6=
EXTT7=
EXTT8=
EXTT9=
EXTT10=
EXTT11=
EXTT12=
EXTT13=
PLAYORDER=
